# xmcd
#
# Track frame offsets:
#	180
#	11489
#	26199
#	40414
#	56204
#
# Disc length: 965 seconds
#
# Revision: 1
# Processed by: cddbd v1.5.2PL0 Copyright (c) Steve Scherf et al.
# Submitted via: audiograbber 1.83.01
#
DISCID=3f03c305
DTITLE=Various Artist - Royalty Sampler #16
DYEAR=1994
DGENRE=Country
TTITLE0=Curtis Grambo - Big News Back home
TTITLE1=Tineta - Walkin' That Line
TTITLE2=Thomas Alexander - You've Got That Right
TTITLE3=Amber Dawn Fleury - This Must Be Love
TTITLE4=High Park - Seattle Rain
EXTD=
EXTT0=
EXTT1=
EXTT2=
EXTT3=
EXTT4=
PLAYORDER=
